<?xml version="1.0" encoding="UTF-8"?>
<!-- Created with Inkscape (http://www.inkscape.org/) -->
<svg width="377.42mm" height="341.15mm" version="1.1" viewBox="0 0 377.42 341.15" xml:space="preserve" xmlns="http://www.w3.org/2000/svg"><defs><marker id="Arrow1_Fnone_S-000000" overflow="visible" markerHeight="6.7071066" markerWidth="4.0606604" orient="auto-start-reverse" preserveAspectRatio="xMidYMid" viewBox="0 0 4.0606602 6.7071068"><path transform="rotate(180 .125 0)" d="m3-3-3 3 3 3" fill="none" stroke="#000"/></marker><marker id="RoundedArrow_Fnone_S-000000" overflow="visible" markerHeight="2.9000001" markerWidth="2.9998813" orient="auto-start-reverse" preserveAspectRatio="xMidYMid" viewBox="0 0 6.1347524 5.9304951"><path transform="scale(.7)" d="m-0.21115-4.1056 6.4223 3.2111a1 1 90 0 1 0 1.7889l-6.4223 3.2111a1.2361 1.2361 31.717 0 1-1.7889-1.1056v-6a1.2361 1.2361 148.28 0 1 1.7889-1.1056z" fill-rule="evenodd"/></marker><marker id="Arrow1-75_Fnone_S-7137c8" overflow="visible" markerHeight="6.7071061" markerWidth="4.0606599" orient="auto-start-reverse" preserveAspectRatio="xMidYMid" viewBox="0 0 4.0606602 6.7071068"><path transform="rotate(180 .125 0)" d="m3-3-3 3 3 3" fill="none" stroke="#7137c8"/></marker><marker id="Arrow1-75_Fnone_S-000000" overflow="visible" markerHeight="6.7071061" markerWidth="4.0606599" orient="auto-start-reverse" preserveAspectRatio="xMidYMid" viewBox="0 0 4.0606602 6.7071068"><path transform="rotate(180 .125 0)" d="m3-3-3 3 3 3" fill="none" stroke="#000"/></marker><marker id="Arrow1-75_Fnone_S-000000_reversed" overflow="visible" markerHeight="6.7071061" markerWidth="4.0606599" orient="auto" preserveAspectRatio="xMidYMid" viewBox="0 0 4.0606602 6.7071068"><g transform="rotate(180)"><path transform="rotate(180 .125 0)" d="m3-3-3 3 3 3" fill="none" stroke="#000"/></g></marker><marker id="RoundedArrow-6_Fnone_S-000000" overflow="visible" markerHeight="2.9000001" markerWidth="2.9998813" orient="auto-start-reverse" preserveAspectRatio="xMidYMid" viewBox="0 0 6.1347524 5.9304951"><path transform="scale(.7)" d="m-0.21115-4.1056 6.4223 3.2111a1 1 90 0 1 0 1.7889l-6.4223 3.2111a1.2361 1.2361 31.717 0 1-1.7889-1.1056v-6a1.2361 1.2361 148.28 0 1 1.7889-1.1056z" fill-rule="evenodd"/></marker><marker id="RoundedArrow-1_Fnone_S-000000" overflow="visible" markerHeight="2.9000001" markerWidth="2.9998813" orient="auto-start-reverse" preserveAspectRatio="xMidYMid" viewBox="0 0 6.1347524 5.9304951"><path transform="scale(.7)" d="m-0.21115-4.1056 6.4223 3.2111a1 1 90 0 1 0 1.7889l-6.4223 3.2111a1.2361 1.2361 31.717 0 1-1.7889-1.1056v-6a1.2361 1.2361 148.28 0 1 1.7889-1.1056z" fill-rule="evenodd"/></marker><marker id="RoundedArrow-6-0_Fnone_S-000000" overflow="visible" markerHeight="2.9000001" markerWidth="2.9998813" orient="auto-start-reverse" preserveAspectRatio="xMidYMid" viewBox="0 0 6.1347524 5.9304951"><path transform="scale(.7)" d="m-0.21115-4.1056 6.4223 3.2111a1 1 90 0 1 0 1.7889l-6.4223 3.2111a1.2361 1.2361 31.717 0 1-1.7889-1.1056v-6a1.2361 1.2361 148.28 0 1 1.7889-1.1056z" fill-rule="evenodd"/></marker><marker id="RoundedArrow-1-3_Fnone_S-000000" overflow="visible" markerHeight="2.9000001" markerWidth="2.9998813" orient="auto-start-reverse" preserveAspectRatio="xMidYMid" viewBox="0 0 6.1347524 5.9304951"><path transform="scale(.7)" d="m-0.21115-4.1056 6.4223 3.2111a1 1 90 0 1 0 1.7889l-6.4223 3.2111a1.2361 1.2361 31.717 0 1-1.7889-1.1056v-6a1.2361 1.2361 148.28 0 1 1.7889-1.1056z" fill-rule="evenodd"/></marker><marker id="RoundedArrow-6-0-5_Fnone_S-000000" overflow="visible" markerHeight="2.9000001" markerWidth="2.9998813" orient="auto-start-reverse" preserveAspectRatio="xMidYMid" viewBox="0 0 6.1347524 5.9304951"><path transform="scale(.7)" d="m-0.21115-4.1056 6.4223 3.2111a1 1 90 0 1 0 1.7889l-6.4223 3.2111a1.2361 1.2361 31.717 0 1-1.7889-1.1056v-6a1.2361 1.2361 148.28 0 1 1.7889-1.1056z" fill-rule="evenodd"/></marker><marker id="Arrow1-4_Fnone_S-000000" overflow="visible" markerHeight="6.7071061" markerWidth="4.0606599" orient="auto-start-reverse" preserveAspectRatio="xMidYMid" viewBox="0 0 4.0606602 6.7071068"><path transform="rotate(180 .125 0)" d="m3-3-3 3 3 3" fill="none" stroke="#000"/></marker><marker id="Arrow1-4_Fnone_S-000000_reversed" overflow="visible" markerHeight="6.7071061" markerWidth="4.0606599" orient="auto" preserveAspectRatio="xMidYMid" viewBox="0 0 4.0606602 6.7071068"><g transform="rotate(180)"><path transform="rotate(180 .125 0)" d="m3-3-3 3 3 3" fill="none" stroke="#000"/></g></marker><marker id="Arrow1-7_Fnone_S-ff6600" overflow="visible" markerHeight="6.7071061" markerWidth="4.0606599" orient="auto-start-reverse" preserveAspectRatio="xMidYMid" viewBox="0 0 4.0606602 6.7071068"><path transform="rotate(180 .125 0)" d="m3-3-3 3 3 3" fill="none" stroke="#f60"/></marker><marker id="RoundedArrow-9_Fnone_S-000000" overflow="visible" markerHeight="2.6584384" markerWidth="2.75" orient="auto-start-reverse" preserveAspectRatio="xMidYMid" viewBox="0 0 6.1347524 5.9304951"><path transform="scale(.7)" d="m-0.21115-4.1056 6.4223 3.2111a1 1 90 0 1 0 1.7889l-6.4223 3.2111a1.2361 1.2361 31.717 0 1-1.7889-1.1056v-6a1.2361 1.2361 148.28 0 1 1.7889-1.1056z" fill-rule="evenodd"/></marker><marker id="Arrow2Send_Fnone_S-000000" overflow="visible" orient="auto"><path transform="matrix(-.3 0 0 -.3 .69 0)" d="m8.7186 4.0337-10.926-4.0177 10.926-4.0177c-1.7455 2.3721-1.7354 5.6175-6e-7 8.0354z" fill-rule="evenodd" stroke="#000" stroke-linejoin="round" stroke-width=".625"/></marker><marker id="RoundedArrow-5_Fnone_S-000000" overflow="visible" markerHeight="2.6584384" markerWidth="2.75" orient="auto-start-reverse" preserveAspectRatio="xMidYMid" viewBox="0 0 6.1347524 5.9304951"><path transform="scale(.7)" d="m-0.21115-4.1056 6.4223 3.2111a1 1 90 0 1 0 1.7889l-6.4223 3.2111a1.2361 1.2361 31.717 0 1-1.7889-1.1056v-6a1.2361 1.2361 148.28 0 1 1.7889-1.1056z" fill-rule="evenodd"/></marker><marker id="Arrow1-75-3_Fnone_S-000000" overflow="visible" markerHeight="6.7071061" markerWidth="4.0606599" orient="auto-start-reverse" preserveAspectRatio="xMidYMid" viewBox="0 0 4.0606602 6.7071068"><path transform="rotate(180 .125 0)" d="m3-3-3 3 3 3" fill="none" stroke="#000"/></marker><marker id="Arrow1-75-3_Fnone_S-000000_reversed" overflow="visible" markerHeight="6.7071061" markerWidth="4.0606599" orient="auto" preserveAspectRatio="xMidYMid" viewBox="0 0 4.0606602 6.7071068"><g transform="rotate(180)"><path transform="rotate(180 .125 0)" d="m3-3-3 3 3 3" fill="none" stroke="#000"/></g></marker><marker id="Arrow1-75-3-6_Fnone_S-000000" overflow="visible" markerHeight="6.7071061" markerWidth="4.0606599" orient="auto-start-reverse" preserveAspectRatio="xMidYMid" viewBox="0 0 4.0606602 6.7071068"><path transform="rotate(180 .125 0)" d="m3-3-3 3 3 3" fill="none" stroke="#000"/></marker><marker id="Arrow1-75-3-6_Fnone_S-000000_reversed" overflow="visible" markerHeight="6.7071061" markerWidth="4.0606599" orient="auto" preserveAspectRatio="xMidYMid" viewBox="0 0 4.0606602 6.7071068"><g transform="rotate(180)"><path transform="rotate(180 .125 0)" d="m3-3-3 3 3 3" fill="none" stroke="#000"/></g></marker><marker id="RoundedArrow-5-2_Fnone_S-000000" overflow="visible" markerHeight="2.6584384" markerWidth="2.75" orient="auto-start-reverse" preserveAspectRatio="xMidYMid" viewBox="0 0 6.1347524 5.9304951"><path transform="scale(.7)" d="m-0.21115-4.1056 6.4223 3.2111a1 1 90 0 1 0 1.7889l-6.4223 3.2111a1.2361 1.2361 31.717 0 1-1.7889-1.1056v-6a1.2361 1.2361 148.28 0 1 1.7889-1.1056z" fill-rule="evenodd"/></marker></defs><g transform="translate(-14.378 -26.536)"><g transform="translate(20.965 26.536)"><rect transform="translate(33.396 -28.601)" x="60.179" y="37.933" width="95.689" height="95.689" fill="none" stop-color="#000000" stroke="#808080" stroke-dasharray="2, 2" stroke-linecap="square"/><rect transform="matrix(1 0 0 -1 33.396 -28.601)" x="60.179" y="-117.94" width="80.009" height="80.009" fill-opacity=".2" stop-color="#000000" stroke="#000"/><text transform="translate(33.396 -28.601)" x="100.90034" y="143.94511" fill="#c83737" font-family="'Noto Sans'" font-size="7.0556px" stroke-width=".26458" style="line-height:1.25" xml:space="preserve"><tspan x="100.90034" y="143.94511" fill="#c83737" font-family="'Noto Sans'" font-weight="bold" stroke-width=".26458">Test</tspan></text><g fill="#000000" font-family="'Noto Sans'" font-size="7.0556px" stroke-width=".26458"><text transform="translate(33.396 -28.601)" x="85.258179" y="33.962791" style="line-height:1.25" xml:space="preserve"><tspan x="85.258179" y="33.962791" fill="#000000" font-family="'Noto Sans'" font-weight="bold" stroke-width=".26458">Orthogroups</tspan></text><text transform="translate(33.396 -28.601)" x="91.455414" y="80.920486" style="line-height:1.25" xml:space="preserve"><tspan x="91.455414" y="80.920486" fill="#000000" font-family="'Noto Sans'" font-weight="bold" stroke-width=".26458">Train</tspan></text><text transform="rotate(-90 2.398 -30.999)" x="-106.63467" y="55.649391" style="line-height:1.25" xml:space="preserve"><tspan x="-106.63467" y="55.649391" fill="#000000" font-family="'Noto Sans'" font-weight="bold" stroke-width=".26458">Species</tspan></text></g><g font-family="'Noto Sans'" stroke-width=".26458"><g font-size="6.35px"><text x="91.160172" y="110.39719" fill="#c83737" text-anchor="end" style="line-height:1.25" xml:space="preserve"><tspan x="91.160172" y="110.39719" font-style="italic" text-align="end">Zea mays</tspan><tspan x="91.160172" y="118.33469" text-align="end">(NAM parents)</tspan></text><text x="91.160172" y="94.863663" fill="#2c89a0" font-style="italic" text-anchor="end" style="line-height:1.25" xml:space="preserve"><tspan x="91.160172" y="94.863663" text-align="end">T. zopilotense</tspan><tspan x="91.160172" y="102.80116" text-align="end">Z. diploperennis</tspan></text><text x="45.273636" y="101.60706" style="line-height:1.25" xml:space="preserve"><tspan x="45.273636" y="101.60706" font-family="'Noto Sans'" font-size="6.35px" font-style="italic" stroke-width=".26458"/></text></g><text transform="translate(33.396 -28.601)" x="148.24767" y="127.89864" fill="#2c89a0" font-size="5.6444px" style="line-height:1.25" xml:space="preserve"><tspan x="148.24767" y="127.89864" fill="#2c89a0" font-family="'Noto Sans'" font-size="5.6444px" font-weight="bold" stroke-width=".26458" text-align="center" text-anchor="middle">Val</tspan></text></g><path transform="matrix(.64729 0 0 .64729 109.97 6.2289)" d="m-110.78 11.424 1e-5 158.79-47.594-79.397z" fill="none" stop-color="#000000" stroke="#000" stroke-width="1.5449"/><path transform="translate(33.396 -28.601)" d="m-25.938 93.617h-7.4586" fill="none" stroke="#000"/><text transform="rotate(-90 2.398 -30.999)" x="-122.97739" y="0.10358462" font-family="'Noto Sans'" font-size="7.7611px" stroke-width=".26458" style="line-height:1.25" xml:space="preserve"><tspan x="-122.97739" y="0.10358462" stroke-width=".26458">Andropogoneae</tspan></text><text transform="rotate(-90)" x="-77.369095" y="68.236313" font-family="'Noto Sans'" font-size="6.35px" stroke-width=".26458" style="line-height:1.25" xml:space="preserve"><tspan x="-77.369095" y="68.236313" font-size="6.35px" stroke-width=".26458">15 training species</tspan></text><rect transform="translate(33.396 -28.601)" x="140.19" y="117.94" width="15.68" height="15.68" fill="#2c89a0" fill-opacity=".2" stop-color="#000000" stroke="#2c89a0"/><rect transform="rotate(-90 2.398 -30.999)" x="-149.3" y="60.179" width="15.68" height="95.689" fill="#c83737" fill-opacity=".2" stop-color="#000000" stroke="#c83737"/></g><g transform="matrix(1.2058 0 0 1.2058 -2.6773 50.713)"><g fill="none" stroke-linecap="round" stroke-linejoin="bevel"><rect x="46.733" y="106.32" width="47.098" height="16.871" rx="1.6587" ry="1.6587" stop-color="#000000" stroke="#c83737"/><rect x="46.733" y="155.91" width="47.098" height="17.38" rx="1.6587" ry="1.6587" stop-color="#000000" stroke="#5aa02c"/><rect x="46.733" y="126.18" width="47.098" height="26.995" rx="1.6587" ry="1.6587" stop-color="#000000" stroke="#ff7f2a"/></g><g font-family="'Noto Sans'" font-size="5.6444px" stroke-width=".26458"><text x="72.680145" y="111.78966" style="line-height:1.25" xml:space="preserve"><tspan x="72.680145" y="111.78966" font-size="5.6444px" stroke-width=".26458">Gene 1</tspan></text><text x="72.680145" y="121.757" style="line-height:1.25" xml:space="preserve"><tspan x="72.680145" y="121.757" font-size="5.6444px" stroke-width=".26458">Gene 2</tspan></text><text x="72.680145" y="131.72433" style="line-height:1.25" xml:space="preserve"><tspan x="72.680145" y="131.72433" font-size="5.6444px" stroke-width=".26458">Gene 3</tspan></text><text x="72.680145" y="141.69168" style="line-height:1.25" xml:space="preserve"><tspan x="72.680145" y="141.69168" font-size="5.6444px" stroke-width=".26458">Gene 4</tspan></text><text x="72.680145" y="151.65903" style="line-height:1.25" xml:space="preserve"><tspan x="72.680145" y="151.65903" font-size="5.6444px" stroke-width=".26458">Gene 5</tspan></text><text x="72.680145" y="161.62636" style="line-height:1.25" xml:space="preserve"><tspan x="72.680145" y="161.62636" font-size="5.6444px" stroke-width=".26458">Gene 6</tspan></text><text x="72.680145" y="171.5937" style="line-height:1.25" xml:space="preserve"><tspan x="72.680145" y="171.5937" font-size="5.6444px" stroke-width=".26458">Gene 7</tspan></text></g><g fill="none" stroke="#000"><g><path d="m55.15 137.18h-8.4178m13.644 7.4755h-5.2266v-14.951h13m0 19.935h-7.7732v-9.9673h7.7732"/><path d="m59.083 114.76h-12.351m21.418-4.9837h-9.0669v9.9674h9.0669"/><path d="m56.015 164.59h-9.2827m21.418-4.9837h-12.135v9.9674h12.135"/></g><path d="m46.733 103.8v71.745" stroke-dasharray="3, 1"/></g><g font-family="'Noto Sans'" font-size="6.35px" stroke-width=".26458"><text x="98.902573" y="116.40926" fill="#c83737" style="line-height:1.25" xml:space="preserve"><tspan x="98.902573" y="116.40926" fill="#c83737" font-size="6.35px" stroke-width=".26458">Orthogroup 1</tspan></text><text x="98.902573" y="141.32761" fill="#ff7f2a" style="line-height:1.25" xml:space="preserve"><tspan x="98.902573" y="141.32761" fill="#ff7f2a" font-size="6.35px" stroke-width=".26458">Orthogroup 2</tspan></text><text x="98.902573" y="166.24596" fill="#5aa02c" style="line-height:1.25" xml:space="preserve"><tspan x="98.902573" y="166.24596" fill="#5aa02c" font-size="6.35px" stroke-width=".26458">Orthogroup 3</tspan></text></g><g transform="translate(4.6991 -3.1305)" font-family="'Noto Sans'" stroke-width=".26458"><text x="157.09509" y="129.44496" font-size="7.0556px" style="line-height:1.25" xml:space="preserve"><tspan x="157.09509" y="129.44496" font-size="7.0556px" stroke-width=".26458">Train</tspan></text><text x="158.98529" y="135.55908" font-size="4.2333px" style="line-height:1.25" xml:space="preserve"><tspan x="158.98529" y="135.55908" font-size="4.2333px" stroke-width=".26458">(n = 5)</tspan></text></g><g transform="translate(3.6458 7.896)" font-family="'Noto Sans'" stroke-width=".26458"><text x="165.19615" y="161.90881" font-size="4.2333px" style="line-height:1.25" xml:space="preserve"><tspan x="165.19615" y="161.90881" font-size="4.2333px" stroke-width=".26458">(n = 2)</tspan></text><text x="158.2189" y="155.95943" font-size="7.0556px" style="line-height:1.25" xml:space="preserve"><tspan x="158.2189" y="155.95943" font-size="7.0556px" stroke-width=".26458">Validate</tspan></text></g><g transform="translate(-1.6858)" fill="none" stroke="#000"><path d="m144.42 139.68c9.5535 0-3.6e-4 -12.459 9.8254-12.459h4.1335" marker-end="url(#Arrow1_Fnone_S-000000)"/><path d="m144.42 114.76c9.5535 0-3.6e-4 12.459 9.8254 12.459"/></g><path d="m142.73 163.86h13.959" fill="none" marker-end="url(#Arrow1_Fnone_S-000000)" stop-color="#000000" stroke="#000" style="-inkscape-stroke:none;font-variation-settings:normal"/></g><g transform="matrix(1.6611 0 0 1.6611 5.0528 112)"><g fill="none"><path d="m65.18 114.77v-1.4543h0.9653" marker-end="url(#RoundedArrow_Fnone_S-000000)" stroke="#000" stroke-width=".25"/><path d="m88.772 114.77v-1.4543h0.9653" marker-end="url(#RoundedArrow-6_Fnone_S-000000)" stroke="#000" stroke-width=".25"/><g stroke="#4d4d4d" stroke-width=".5"><path d="m76.885 116.78h11.887"/><path d="m104.16 116.78h7.3245"/><path d="m57.856 116.78h7.3245"/></g><path d="m68.618 114.77 1.1004-1.1839 1.1004 1.1839" stroke="#442178" stroke-width=".5"/><g stroke="#f60"><path d="m95.913 114.77 1.5999-1.1839 1.5999 1.1839" stroke-width=".5"/><rect x="88.772" y="114.77" width="7.1414" height="4.0138" stop-color="#000000" stroke-width=".5"/><rect x="99.113" y="114.77" width="5.0511" height="4.0138" stop-color="#000000" stroke-width=".5"/></g><rect x="65.18" y="114.77" width="3.4382" height="4.0138" stop-color="#000000" stroke="#442178" stroke-width=".5"/><rect x="70.819" y="114.77" width="6.0656" height="4.0138" stop-color="#000000" stroke="#442178" stroke-width=".5"/></g><g fill="none"><g><path d="m65.18 127.35v-1.4543h0.9653" marker-end="url(#RoundedArrow-1_Fnone_S-000000)" stroke="#000" stroke-width=".25"/><path d="m88.772 127.35v-1.4543h0.9653" marker-end="url(#RoundedArrow-6-0_Fnone_S-000000)" stroke="#000" stroke-width=".25"/><path d="m68.618 127.35 1.1004-1.1839 1.1004 1.1839" stroke="#7137c8" stroke-width=".5"/><path d="m95.913 127.35 1.5999-1.1839 1.5999 1.1839" stroke="#f95" stroke-width=".5"/></g><g stroke="#4d4d4d" stroke-width=".5"><path d="m76.885 129.36h11.887"/><path d="m104.16 129.36h7.3245"/><path d="m57.856 129.36h7.3245"/></g><g stroke-width=".5"><rect x="88.772" y="127.35" width="7.1414" height="4.0138" stop-color="#000000" stroke="#f95"/><rect x="99.113" y="127.35" width="5.0511" height="4.0138" stop-color="#000000" stroke="#f95"/><rect x="65.18" y="127.35" width="3.4382" height="4.0138" stop-color="#000000" stroke="#7137c8"/><rect x="70.819" y="127.35" width="6.0656" height="4.0138" stop-color="#000000" stroke="#7137c8"/></g></g><g fill="none"><g><path d="m65.18 139.92v-1.4543h0.9653" marker-end="url(#RoundedArrow-1-3_Fnone_S-000000)" stroke="#000" stroke-width=".25"/><path d="m88.772 139.92v-1.4543h0.9653" marker-end="url(#RoundedArrow-6-0-5_Fnone_S-000000)" stroke="#000" stroke-width=".25"/><path d="m68.618 139.92 1.1004-1.1839 1.1004 1.1839" stroke="#aa87de" stroke-width=".5"/><path d="m95.913 139.92 1.5999-1.1839 1.5999 1.1839" stroke="#a40" stroke-width=".5"/></g><g stroke="#4d4d4d" stroke-width=".5"><path d="m76.885 141.93h11.887"/><path d="m104.16 141.93h7.3245"/><path d="m57.856 141.93h7.3245"/></g><g stroke-width=".5"><rect x="88.772" y="139.92" width="7.1414" height="4.0138" stop-color="#000000" stroke="#a40"/><rect x="99.113" y="139.92" width="5.0511" height="4.0138" stop-color="#000000" stroke="#a40"/><rect x="65.18" y="139.92" width="3.4382" height="4.0138" stop-color="#000000" stroke="#aa87de"/><rect x="70.819" y="139.92" width="6.0656" height="4.0138" stop-color="#000000" stroke="#aa87de"/></g></g><g font-family="'Noto Sans'" font-size="4.2333px" stroke-width=".26458"><text x="33.148468" y="118.36741" fill="#c83737" style="line-height:1.25" xml:space="preserve"><tspan x="33.148468" y="118.36741" fill="#000000" font-size="4.2333px" stroke-width=".26458">Individual 1</tspan></text><text x="32.799221" y="130.94334" fill="#5aa02c" style="line-height:1.25" xml:space="preserve"><tspan x="32.799221" y="130.94334" fill="#000000" font-size="4.2333px" stroke-width=".26458">Individual 2</tspan></text><text x="32.809803" y="143.51929" fill="#cc00ff" style="line-height:1.25" xml:space="preserve"><tspan x="32.809803" y="143.51929" fill="#000000" font-size="4.2333px" stroke-width=".26458">Individual 3</tspan></text></g><g fill="none" stroke-width=".5"><rect x="61.339" y="110.07" width="46.665" height="38.569" rx="1.2041" ry="1.2041" stop-color="#000000" stroke="#000" style="font-variation-settings:normal"/><rect x="62.905" y="109.07" width="16.254" height="40.569" rx="1.2041" ry="1.2041" stop-color="#000000" stroke="#7137c8" stroke-dasharray="0.999998, 0.999998" style="font-variation-settings:normal"/><rect x="86.718" y="109.07" width="19.287" height="40.569" rx="1.2041" ry="1.2041" stop-color="#000000" stroke="#f60" stroke-dasharray="0.999998, 0.999998" style="font-variation-settings:normal"/></g><text x="64.364922" y="107.2985" font-family="'Noto Sans'" font-size="4.2333px" stroke-width=".26458" style="line-height:1.25" xml:space="preserve"><tspan x="64.364922" y="107.2985" font-size="4.2333px" stroke-width=".26458">Gene 1</tspan></text><text x="89.451103" y="107.2985" font-family="'Noto Sans'" font-size="4.2333px" stroke-width=".26458" style="line-height:1.25" xml:space="preserve"><tspan x="89.451103" y="107.2985" font-size="4.2333px" stroke-width=".26458">Gene 2</tspan></text><g transform="translate(-.59681 -.26619)"><path d="m122.24 122.47 17.492-17.492" fill="none" stroke="#00aad4" stroke-dasharray="1, 1" stroke-width=".5"/><path d="m139.73 122.47h-17.492v-17.492" fill="none" marker-end="url(#Arrow1-75_Fnone_S-000000)" marker-start="url(#Arrow1-75_Fnone_S-000000_reversed)" stroke="#000" stroke-width=".5"/><g><circle cx="126.71" cy="116.2" r=".5" fill="#442178" stop-color="#000000" style="font-variation-settings:normal"/><circle cx="135.07" cy="108.96" r=".5" fill="#a40" stop-color="#000000" style="font-variation-settings:normal"/><circle cx="138.37" cy="105.59" r=".5" fill="#f60" stop-color="#000000" style="font-variation-settings:normal"/><circle cx="127.12" cy="118.58" r=".5" fill="#aa87de" stop-color="#000000" style="font-variation-settings:normal"/><circle cx="137.84" cy="108.16" r=".5" fill="#f95" stop-color="#000000" style="font-variation-settings:normal"/><circle cx="129.37" cy="117.28" r=".5" fill="#7137c8" stop-color="#000000" style="font-variation-settings:normal"/></g></g><g transform="translate(14.79 24.897)"><path d="m134.9 110.22 4.5882-5.0988" fill="none" stroke="#00aad4" stroke-dasharray="1, 1" stroke-width=".5"/><path d="m139.73 122.47h-17.492v-17.492" fill="none" marker-end="url(#Arrow1-75-3_Fnone_S-000000)" marker-start="url(#Arrow1-75-3_Fnone_S-000000_reversed)" stroke="#000" stroke-width=".5"/><g><circle cx="135.07" cy="108.96" r=".5" fill="#a40" stop-color="#000000" style="font-variation-settings:normal"/><circle cx="138.37" cy="105.59" r=".5" fill="#f60" stop-color="#000000" style="font-variation-settings:normal"/><circle cx="137.84" cy="108.16" r=".5" fill="#f95" stop-color="#000000" style="font-variation-settings:normal"/></g></g><g transform="translate(-7.2784 24.897)"><path d="m125.26 117.64 5.8747-1.0756" fill="none" stroke="#00aad4" stroke-dasharray="1, 1" stroke-width=".5"/><path d="m139.73 122.47h-17.492v-17.492" fill="none" marker-end="url(#Arrow1-4_Fnone_S-000000)" marker-start="url(#Arrow1-4_Fnone_S-000000_reversed)" stroke="#000" stroke-width=".5"/><g><circle cx="126.71" cy="116.2" r=".5" fill="#442178" stop-color="#000000" style="font-variation-settings:normal"/><circle cx="127.12" cy="118.58" r=".5" fill="#aa87de" stop-color="#000000" style="font-variation-settings:normal"/><circle cx="129.37" cy="117.28" r=".5" fill="#7137c8" stop-color="#000000" style="font-variation-settings:normal"/></g></g><g fill="none" stroke-width=".4"><path d="m108 110.07c5.2446-5.2446 7.5864-2.7718 11.076 0" marker-end="url(#Arrow1-75_Fnone_S-000000)" stroke="#000"/><path d="m69.918 150.05c0.20509 4.7797 45.143 5.0438 50.717-1.5793" marker-end="url(#Arrow1-75_Fnone_S-7137c8)" stop-color="#000000" stroke="#7137c8" stroke-dasharray="0.8, 0.8" style="font-variation-settings:normal"/><path d="m96.361 150.23c0.20509 4.7797 45.143 5.0438 50.717-1.5793" marker-end="url(#Arrow1-7_Fnone_S-ff6600)" stop-color="#000000" stroke="#f60" stroke-dasharray="0.8, 0.8" style="font-variation-settings:normal"/></g><g transform="translate(-6.1905 2.2262)"><text x="123.83877" y="133.85449" font-family="'Noto Sans'" font-size="4.6724px" stroke-width=".15929" style="line-height:1.25" xml:space="preserve"><tspan x="123.83877" y="133.85449" stroke-width=".15929">r</tspan></text><path d="m126.82 130.8v1.3686h-0.57698l1.2613 2.1847 1.2612-2.1847h-0.57698v-1.3686z" fill="#a00" stop-color="#000000"/></g><g transform="translate(1.4192 -23.85)"><text x="123.83877" y="133.85449" font-family="'Noto Sans'" font-size="4.6724px" stroke-width=".15929" style="line-height:1.25" xml:space="preserve"><tspan x="123.83877" y="133.85449" stroke-width=".15929">r</tspan></text><path d="m126.82 134.36v-1.3686h-0.57698l1.2613-2.1847 1.2612 2.1847h-0.57698v1.3686z" fill="#5aa02c" stop-color="#000000"/></g><g transform="translate(15.583 1.8954)"><text x="123.83877" y="133.85449" font-family="'Noto Sans'" font-size="4.6724px" stroke-width=".15929" style="line-height:1.25" xml:space="preserve"><tspan x="123.83877" y="133.85449" stroke-width=".15929">r</tspan></text><path d="m126.82 134.36v-1.3686h-0.57698l1.2613-2.1847 1.2612 2.1847h-0.57698v1.3686z" fill="#5aa02c" stop-color="#000000"/></g><g transform="translate(3.1857 -2.0269)"><path d="m180.67 147.18c7.3334-1.965 5.4121-13.272 10.914-13.272s3.5805 11.307 10.914 13.272h-21.828" fill="#e6e6e6" stroke="#000" stroke-width=".15929px"/><g transform="translate(50.591 30.417)"><path d="m155.79 116.76h-29.904v-17.492" fill="none" marker-end="url(#Arrow1-75-3-6_Fnone_S-000000)" marker-start="url(#Arrow1-75-3-6_Fnone_S-000000_reversed)" stroke="#000" stroke-width=".5"/></g><text x="186.16193" y="151.62405" font-family="'Noto Sans'" font-size="4.6724px" stroke-width=".15929" style="line-height:1.25" xml:space="preserve"><tspan x="186.16193" y="151.62405" stroke-width=".15929">r<tspan baseline-shift="sub" font-size="65%">gene</tspan></tspan></text></g><g transform="matrix(6.7597 0 0 6.7597 -563.04 -657.54)" stroke-width=".15929" aria-label="]"><path d="m106.51 119.74h0.78029v-3.7473h-0.78029v-0.16353h0.95784v4.0743h-0.95784z"/></g><path d="m166.36 139.22h7.2406" fill="none" marker-end="url(#RoundedArrow-5-2_Fnone_S-000000)" stroke="#000" stroke-linecap="round" stroke-linejoin="bevel" stroke-opacity=".88235" stroke-width=".90304"/></g><g transform="translate(251.57 153.54)"><g fill="none" stroke="#000"><g stroke-width=".5"><path d="m26.458 46.591h60.132"/><path d="m102.47 46.591h28.868"/><path d="m102.47 66.591h28.868"/></g><path d="m102.47 86.591h28.868"/><path d="m102.47 106.59h28.868" stroke-width=".5"/><path d="m26.458 66.591h60.132" stroke-width=".5"/><path d="m26.458 86.591h60.132"/><path d="m26.458 106.59h60.132" stroke-width=".5"/><path d="m56.591 26.458v99" stroke-width=".5"/><path d="m28.458 125.46c-1.108 0-2-0.892-2-2v-95c0-1.108 0.892-2 2-2h58.132v99z"/><path d="m102.47 26.458h26.868c1.108 0 2 0.892 2 2v95c0 1.108-0.892 2-2 2l-26.868-1e-5z"/></g><g font-family="'Noto Sans'" font-size="7.7611px" stroke-width=".26458"><text x="35.901558" y="39.220814" style="line-height:1.25" xml:space="preserve"><tspan x="35.901558" y="39.220814" stroke-width=".26458">1.2</tspan></text><text x="35.920963" y="59.345821" style="line-height:1.25" xml:space="preserve"><tspan x="35.920963" y="59.345821" stroke-width=".26458">1.3</tspan></text><text x="36.541851" y="79.182007" style="line-height:1.25" xml:space="preserve"><tspan x="36.541851" y="79.182007" stroke-width=".26458">1.1</tspan></text><text x="35.920963" y="99.470802" style="line-height:1.25" xml:space="preserve"><tspan x="35.920963" y="99.470802" stroke-width=".26458">1.3</tspan></text><text x="39.801514" y="118.85404" style="line-height:1.25" xml:space="preserve"><tspan x="39.801514" y="118.85404" stroke-width=".26458">1</tspan></text><text x="66.111313" y="39.220814" style="line-height:1.25" xml:space="preserve"><tspan x="66.111313" y="39.220814" stroke-width=".26458">0.0</tspan></text><text x="66.111313" y="59.345821" style="line-height:1.25" xml:space="preserve"><tspan x="66.111313" y="59.345821" stroke-width=".26458">0.0</tspan></text><text x="66.111313" y="79.182007" style="line-height:1.25" xml:space="preserve"><tspan x="66.111313" y="79.182007" stroke-width=".26458">0.0</tspan></text><text x="66.111313" y="99.470802" style="line-height:1.25" xml:space="preserve"><tspan x="66.111313" y="99.470802" stroke-width=".26458">0.0</tspan></text><text x="69.370972" y="118.85404" style="line-height:1.25" xml:space="preserve"><tspan x="69.370972" y="118.85404" stroke-width=".26458">0</tspan></text><text x="115.17655" y="118.85404" style="line-height:1.25" xml:space="preserve"><tspan x="115.17655" y="118.85404" stroke-width=".26458">1</tspan></text><text x="111.46675" y="99.470802" style="line-height:1.25" xml:space="preserve"><tspan x="111.46675" y="99.470802" stroke-width=".26458">3.5</tspan></text><text x="112.07211" y="79.182007" style="line-height:1.25" xml:space="preserve"><tspan x="112.07211" y="79.182007" stroke-width=".26458">0.1</tspan></text><text x="111.42018" y="59.345821" style="line-height:1.25" xml:space="preserve"><tspan x="111.42018" y="59.345821" stroke-width=".26458">0.0</tspan></text><text x="111.46675" y="39.220814" style="line-height:1.25" xml:space="preserve"><tspan x="111.46675" y="39.220814" stroke-width=".26458">3.5</tspan></text></g><g transform="translate(109.53 28.558)"><rect x="-20" y="46.4" width="2" height="2" stop-color="#000000"/><rect x="-16" y="46.4" width="2" height="2" stop-color="#000000"/><rect x="-12" y="46.4" width="2" height="2" stop-color="#000000"/></g><g font-family="'Noto Sans'" font-size="6.35px" stroke-width=".26458"><text x="31.523228" y="22.192558" style="line-height:1.25" xml:space="preserve"><tspan x="31.523228" y="22.192558" font-size="6.35px" stroke-width=".26458">Gene 1</tspan></text><text x="9.5230923" y="39.220814" style="line-height:1.25" xml:space="preserve"><tspan x="9.5230923" y="39.220814" font-size="6.35px" stroke-width=".26458">Leaf</tspan></text><text x="7.6689" y="59.345821" style="line-height:1.25" xml:space="preserve"><tspan x="7.6689" y="59.345821" font-size="6.35px" stroke-width=".26458">Stem</tspan></text><text x="2.7032194" y="79.182007" style="line-height:1.25" xml:space="preserve"><tspan x="2.7032194" y="79.182007" font-size="6.35px" stroke-width=".26458">Flower</tspan></text><text x="8.9896879" y="99.470802" style="line-height:1.25" xml:space="preserve"><tspan x="8.9896879" y="99.470802" font-family="'Noto Sans'" font-size="6.35px" font-weight="bold" stroke-width=".26458">Max</tspan></text><text x="0.34735143" y="118.85404" style="line-height:1.25" xml:space="preserve"><tspan x="0.34735143" y="118.85404" font-family="'Noto Sans'" font-size="6.35px" font-weight="bold" stroke-width=".26458">On/Off</tspan></text><text x="61.065529" y="22.192558" style="line-height:1.25" xml:space="preserve"><tspan x="61.065529" y="22.192558" font-size="6.35px" stroke-width=".26458">Gene 2</tspan></text><text x="105.92037" y="22.192558" style="line-height:1.25" xml:space="preserve"><tspan x="105.92037" y="22.192558" font-size="6.35px" stroke-width=".26458">Gene N</tspan></text></g></g><g transform="translate(235.57 33.588)"><g fill="none"><g stroke="#000"><path transform="translate(-77.261 1.2443)" d="m120.36 14.031v-5.104h4.8445" marker-end="url(#Arrow2Send_Fnone_S-000000)"/><path transform="translate(-77.261 1.2443)" d="m98.605 16.531h1.2464c9.6442 0 7.4482-5.7376 4.1917-5.7376-3.2564 0-5.4524 5.7376 4.1917 5.7376h1.2465"/><path transform="translate(-77.261 1.2443)" d="m214.67 16.531h1.2464c9.6442 0 7.4482-5.7376 4.1917-5.7376-3.2564 0-5.4524 5.7376 4.1917 5.7376h1.2465"/></g><path transform="translate(-77.261 1.2443)" d="m109.48 16.531h10.876" stroke="#d40000"/><path transform="translate(-77.261 1.2443)" d="m204.42 16.531h10.876" stroke="#d40000"/></g><g transform="translate(-16.594 -12.724)"><rect x="30" y="30" width="1" height="1"/><rect x="32" y="30" width="1" height="1"/><rect x="34" y="30" width="1" height="1"/></g><g transform="translate(121.23 -12.724)"><rect x="30" y="30" width="1" height="1"/><rect x="32" y="30" width="1" height="1"/><rect x="34" y="30" width="1" height="1"/></g><g fill="none"><rect transform="translate(-77.261 1.2443)" x="120.36" y="14.031" width="13.233" height="5" stroke="#37abc8" stroke-linecap="round" stroke-linejoin="round"/><rect transform="translate(-77.261 1.2443)" x="191.19" y="14.031" width="13.233" height="5" stroke="#37abc8" stroke-linecap="round" stroke-linejoin="round"/><g stroke="#000"><g stroke-linecap="round" stroke-linejoin="round"><rect transform="translate(-77.261 1.2443)" x="154.31" y="14.031" width="13.233" height="5"/><rect transform="translate(-77.261 1.2443)" x="133.59" y="14.031" width="13.233" height="5"/><rect transform="translate(-77.261 1.2443)" x="177.95" y="14.031" width="13.233" height="5"/></g><path transform="translate(-77.261 1.2443)" d="m146.82 14.031 3.7432-3.175 3.7432 3.175"/><path transform="translate(-77.261 1.2443)" d="m167.54 14.031 5.2058-3.175 5.2059 3.175"/></g></g><g transform="translate(-61.613 -13.381)"><rect x="72.359" y="90.05" width="27.639" height="27.639" stroke="#333" stroke-linecap="round" stroke-linejoin="round" stroke-opacity=".98431"/><text x="86.15519" y="105.00012" fill="#ffffff" font-family="sans-serif" font-size="4.2333px" stroke-width=".26458" style="line-height:1.25" xml:space="preserve"><tspan x="86.15519" y="105.00012" fill="#ffffff" stroke-width=".26458" text-align="center" text-anchor="middle">Model</tspan></text><path class="UnoptimicedTransforms" d="m113.82 76.23-13.82 13.82-5e-6 27.639 13.82-13.82z" stroke="#333" stroke-linecap="round" stroke-linejoin="round"/><path d="m72.359 90.05 13.82-13.82h27.639l-13.82 13.82z" stroke="#333" stroke-linecap="round" stroke-linejoin="round"/></g><path d="m28.801 42.494v12.027" fill="none" marker-end="url(#RoundedArrow-9_Fnone_S-000000)" stroke="#000" stroke-linecap="round" stroke-linejoin="bevel" stroke-opacity=".88235" stroke-width="1.5"/><path d="m34.777 115.74 8.5044 8.5044" fill="none" marker-end="url(#RoundedArrow-5_Fnone_S-000000)" stroke="#000" stroke-linecap="round" stroke-linejoin="bevel" stroke-opacity=".88235" stroke-width="1.5"/><g transform="translate(-107.03 -2.8259)" fill="none" stroke="#000"><path d="m107.53 25.747v9.6497"/><path d="m163.36 25.747v9.6497"/><path d="m107.53 30.572h55.83"/></g><g font-family="'Noto Sans'" stroke-width=".26458"><text x="20.221872" y="35.614857" font-size="5.6444px" style="line-height:1.25" xml:space="preserve"><tspan x="20.221872" y="35.614857" font-size="5.6444px" stroke-width=".26458">~1kbp</tspan></text><text transform="translate(-77.261 1.2443)" x="119.63605" y="3.8639531" fill="#37abc8" font-size="7.0556px" style="line-height:1.25" xml:space="preserve"><tspan x="119.63605" y="3.8639531" fill="#37abc8" font-family="'Noto Sans'" font-weight="bold" stroke-width=".26458">UTR</tspan></text><text transform="translate(-77.261 1.2443)" x="155.52357" y="3.8639531" fill="#000000" font-size="7.0556px" style="line-height:1.25" xml:space="preserve"><tspan x="155.52357" y="3.8639531" fill="#000000" font-family="'Noto Sans'" font-weight="bold" stroke-width=".26458">CDS</tspan></text></g><g transform="translate(0 4.7776)" stroke-width=".26458"><g transform="matrix(8.5403 0 0 8.5403 -911.1 -537.72)" aria-label="{"><path d="m116.23 75.574q-0.65193 0-0.99342-0.2794-0.33372-0.2794-0.33372-0.80716v-1.2883q0-0.46567-0.20955-0.66746-0.20179-0.20955-0.66746-0.20955v-0.26388q0.46567 0 0.66746-0.19403 0.20955-0.20179 0.20955-0.68298v-1.2883q0-0.52776 0.34148-0.80715 0.34149-0.2794 0.98566-0.2794v0.27164q-0.52775 0-0.77611 0.20955-0.24835 0.20179-0.24835 0.65193v1.2728q0 0.39582-0.15522 0.65193-0.14746 0.24836-0.50447 0.31044v0.02328q0.35701 0.06985 0.50447 0.32597 0.15522 0.24836 0.15522 0.64417v1.2961q0 0.43462 0.24835 0.63641 0.24836 0.20179 0.77611 0.20179z"/></g><g transform="translate(-4.2333 2.1882)" font-family="'Noto Sans'" font-size="7.7611px"><text x="92.381363" y="60.714825" style="line-height:1.25" xml:space="preserve"><tspan x="92.381363" y="60.714825" stroke-width=".26458">DanQ</tspan></text><text x="92.381363" y="72.780632" style="line-height:1.25" xml:space="preserve"><tspan x="92.381363" y="72.780632" stroke-width=".26458">FNetCompression</tspan></text><text x="92.381363" y="85.234489" style="line-height:1.25" xml:space="preserve"><tspan x="92.381363" y="85.234489" stroke-width=".26458">HyenaDNA</tspan></text><text x="92.381363" y="98.060883" style="line-height:1.25" xml:space="preserve"><tspan x="92.381363" y="98.060883" stroke-width=".26458">Miniformer</tspan></text></g></g></g><g font-family="'Noto Sans'" font-size="11.289px" stroke-width=".26458"><text x="13.904061" y="37.371231" style="line-height:1.25" xml:space="preserve"><tspan x="13.904061" y="37.371231" font-family="'Noto Sans'" font-size="11.289px" font-weight="bold" stroke-width=".26458">a</tspan></text><text x="227.05948" y="38.890854" style="line-height:1.25" xml:space="preserve"><tspan x="227.05948" y="38.890854" font-family="'Noto Sans'" font-size="11.289px" font-weight="bold" stroke-width=".26458">b</tspan></text><text x="39.79937" y="176.18349" style="line-height:1.25" xml:space="preserve"><tspan x="39.79937" y="176.18349" font-family="'Noto Sans'" font-size="11.289px" font-weight="bold" stroke-width=".26458">c</tspan></text><text x="47.207699" y="295.00882" style="line-height:1.25" xml:space="preserve"><tspan x="47.207699" y="295.00882" font-family="'Noto Sans'" font-size="11.289px" font-weight="bold" stroke-width=".26458">d</tspan></text></g></g></svg>
